<svg width="344" height="47" viewBox="0 0 344 47" fill="none" xmlns="http://www.w3.org/2000/svg">
<path d="M31.5604 37V2.09091H53.924V7.39205H37.8842V16.8693H52.3899V22.1705H37.8842V37H31.5604Z" fill="#2ED573"/>
<path d="M59.0376 37V10.8182H65.0206V15.1818H65.2933C65.7706 13.6705 66.5888 12.5057 67.7479 11.6875C68.9183 10.858 70.2536 10.4432 71.7536 10.4432C72.0945 10.4432 72.4751 10.4602 72.8956 10.4943C73.3274 10.517 73.6854 10.5568 73.9695 10.6136V16.2898C73.7081 16.1989 73.2933 16.1193 72.7251 16.0511C72.1683 15.9716 71.6286 15.9318 71.1058 15.9318C69.9808 15.9318 68.9695 16.1761 68.0717 16.6648C67.1854 17.142 66.4865 17.8068 65.9751 18.6591C65.4638 19.5114 65.2081 20.4943 65.2081 21.608V37H59.0376Z" fill="#2ED573"/>
<path d="M88.4112 37.5114C85.8544 37.5114 83.6385 36.9489 81.7635 35.8239C79.8885 34.6989 78.4339 33.125 77.3999 31.1023C76.3771 29.0795 75.8658 26.7159 75.8658 24.0114C75.8658 21.3068 76.3771 18.9375 77.3999 16.9034C78.4339 14.8693 79.8885 13.2898 81.7635 12.1648C83.6385 11.0398 85.8544 10.4773 88.4112 10.4773C90.968 10.4773 93.184 11.0398 95.059 12.1648C96.934 13.2898 98.3828 14.8693 99.4055 16.9034C100.44 18.9375 100.957 21.3068 100.957 24.0114C100.957 26.7159 100.44 29.0795 99.4055 31.1023C98.3828 33.125 96.934 34.6989 95.059 35.8239C93.184 36.9489 90.968 37.5114 88.4112 37.5114ZM88.4453 32.5682C89.8317 32.5682 90.9908 32.1875 91.9226 31.4261C92.8544 30.6534 93.5476 29.6193 94.0021 28.3239C94.468 27.0284 94.701 25.5852 94.701 23.9943C94.701 22.392 94.468 20.9432 94.0021 19.6477C93.5476 18.3409 92.8544 17.3011 91.9226 16.5284C90.9908 15.7557 89.8317 15.3693 88.4453 15.3693C87.0249 15.3693 85.843 15.7557 84.8999 16.5284C83.968 17.3011 83.2692 18.3409 82.8033 19.6477C82.3487 20.9432 82.1215 22.392 82.1215 23.9943C82.1215 25.5852 82.3487 27.0284 82.8033 28.3239C83.2692 29.6193 83.968 30.6534 84.8999 31.4261C85.843 32.1875 87.0249 32.5682 88.4453 32.5682Z" fill="#2ED573"/>
<path d="M112.364 21.6591V37H106.194V10.8182H112.092V15.267H112.398C113.001 13.8011 113.961 12.6364 115.279 11.7727C116.609 10.9091 118.251 10.4773 120.205 10.4773C122.012 10.4773 123.586 10.8636 124.927 11.6364C126.279 12.4091 127.325 13.5284 128.063 14.9943C128.813 16.4602 129.183 18.2386 129.171 20.3295V37H123.001V21.2841C123.001 19.5341 122.546 18.1648 121.637 17.1761C120.739 16.1875 119.495 15.6932 117.904 15.6932C116.825 15.6932 115.864 15.9318 115.023 16.4091C114.194 16.875 113.54 17.5511 113.063 18.4375C112.597 19.3239 112.364 20.3977 112.364 21.6591Z" fill="#2ED573"/>
<path d="M148.518 10.8182V15.5909H133.467V10.8182H148.518ZM137.183 4.54545H143.353V29.125C143.353 29.9545 143.478 30.5909 143.728 31.0341C143.989 31.4659 144.33 31.7614 144.751 31.9205C145.171 32.0795 145.637 32.1591 146.148 32.1591C146.535 32.1591 146.887 32.1307 147.205 32.0739C147.535 32.017 147.785 31.9659 147.955 31.9205L148.995 36.7443C148.665 36.858 148.194 36.983 147.58 37.1193C146.978 37.2557 146.239 37.3352 145.364 37.358C143.819 37.4034 142.427 37.1705 141.188 36.6591C139.95 36.1364 138.967 35.3295 138.239 34.2386C137.523 33.1477 137.171 31.7841 137.183 30.1477V4.54545Z" fill="#2ED573"/>
<path d="M166.343 37H154.513V2.09091H166.582C170.048 2.09091 173.025 2.78977 175.514 4.1875C178.014 5.57386 179.934 7.56818 181.275 10.1705C182.616 12.7727 183.286 15.8864 183.286 19.5114C183.286 23.1477 182.61 26.2727 181.258 28.8864C179.917 31.5 177.979 33.5057 175.445 34.9034C172.923 36.3011 169.889 37 166.343 37ZM160.837 31.5284H166.036C168.468 31.5284 170.496 31.0852 172.121 30.1989C173.746 29.3011 174.968 27.9659 175.786 26.1932C176.604 24.4091 177.014 22.1818 177.014 19.5114C177.014 16.8409 176.604 14.625 175.786 12.8636C174.968 11.0909 173.758 9.76705 172.156 8.89205C170.565 8.00568 168.587 7.5625 166.224 7.5625H160.837V31.5284Z" fill="#2ED573"/>
<path d="M200.613 37.5114C197.988 37.5114 195.721 36.9659 193.812 35.875C191.914 34.7727 190.454 33.2159 189.431 31.2045C188.408 29.1818 187.897 26.8011 187.897 24.0625C187.897 21.3693 188.408 19.0057 189.431 16.9716C190.465 14.9261 191.908 13.3352 193.761 12.1989C195.613 11.0511 197.789 10.4773 200.289 10.4773C201.903 10.4773 203.425 10.7386 204.857 11.2614C206.3 11.7727 207.573 12.5682 208.675 13.6477C209.789 14.7273 210.664 16.1023 211.3 17.7727C211.937 19.4318 212.255 21.4091 212.255 23.7045V25.5966L194 25.5V23.5L194.016 21.8125L206.34 21.4375C206.329 20.2557 206.073 19.2045 205.573 18.2841C205.073 17.3523 204.374 16.6193 203.477 16.0852C202.59 15.5511 201.556 15.2841 200.374 15.2841C199.113 15.2841 198.005 15.5909 197.05 16.2045C196.096 16.8068 195.352 17.6023 194.817 18.5909C194.295 19.5682 194.028 20.642 194.016 21.8125V25.4432C194.016 26.9659 194.295 28.2727 194.852 29.3636C195.408 30.4432 196.187 31.2727 197.187 31.8523C198.187 32.4205 199.357 32.7045 200.698 32.7045C201.596 32.7045 202.408 32.5795 203.136 32.3295C203.863 32.0682 204.494 31.6875 205.028 31.1875C205.562 30.6875 205.965 30.0682 206.238 29.3295L211.999 29.9773C211.636 31.5 210.942 32.8295 209.92 33.9659C208.908 35.0909 207.613 35.9659 206.033 36.5909C204.454 37.2045 202.647 37.5114 200.613 37.5114Z" fill="#2ED573"/>
<path d="M240.112 10.8182L230.788 37H223.969L214.646 10.8182H221.225L227.242 30.267H227.515L233.549 10.8182H240.112Z" fill="#2ED573"/>
<path d="M244.654 37V2.09091H258.018C260.54 2.09091 262.637 2.48864 264.308 3.28409C265.989 4.06818 267.245 5.14205 268.075 6.50568C268.915 7.86932 269.336 9.41477 269.336 11.142C269.336 12.5625 269.063 13.7784 268.518 14.7898C267.972 15.7898 267.239 16.6023 266.319 17.2273C265.398 17.8523 264.37 18.3011 263.234 18.5739V18.9148C264.472 18.983 265.66 19.3636 266.796 20.0568C267.944 20.7386 268.881 21.7045 269.609 22.9545C270.336 24.2045 270.7 25.7159 270.7 27.4886C270.7 29.2955 270.262 30.9205 269.387 32.3636C268.512 33.7955 267.194 34.9261 265.433 35.7557C263.671 36.5852 261.455 37 258.785 37H244.654ZM250.978 31.7159H257.779C260.075 31.7159 261.728 31.2784 262.739 30.4034C263.762 29.517 264.273 28.3807 264.273 26.9943C264.273 25.9602 264.018 25.0284 263.506 24.1989C262.995 23.358 262.268 22.6989 261.325 22.2216C260.381 21.733 259.256 21.4886 257.95 21.4886H250.978V31.7159ZM250.978 16.9375H257.234C258.325 16.9375 259.308 16.7386 260.183 16.3409C261.058 15.9318 261.745 15.358 262.245 14.6193C262.756 13.8693 263.012 12.983 263.012 11.9602C263.012 10.608 262.535 9.49432 261.58 8.61932C260.637 7.74432 259.234 7.30682 257.37 7.30682H250.978V16.9375Z" fill="#2ED573"/>
<path d="M279.764 46.8182C278.923 46.8182 278.144 46.75 277.428 46.6136C276.724 46.4886 276.161 46.3409 275.741 46.1705L277.173 41.3636C278.07 41.625 278.871 41.75 279.576 41.7386C280.281 41.7273 280.9 41.5057 281.434 41.0739C281.979 40.6534 282.44 39.9489 282.815 38.9602L283.343 37.5455L273.849 10.8182H280.394L286.428 30.5909H286.701L292.752 10.8182H299.315L288.832 40.1705C288.343 41.5568 287.695 42.7443 286.889 43.733C286.082 44.733 285.093 45.4943 283.923 46.017C282.763 46.5511 281.377 46.8182 279.764 46.8182Z" fill="#2ED573"/>
<path fill-rule="evenodd" clip-rule="evenodd" d="M7.24077 20.0179L7.05327 19.9375L7.24077 20.2614V20.0179ZM7.05327 19.8011L7.24077 19.7207V19.4773L7.05327 19.8011Z" fill="#2ED573"/>
<path d="M0.303267 17.4148V22.3239L23.6215 33.0966V27.0455L7.24077 20.0179V20.2614L7.05327 19.9375L7.24077 20.0179V19.7207L7.05327 19.8011L7.24077 19.4773V19.7207L23.6215 12.6932V6.64205L0.303267 17.4148Z" fill="white"/>
<path fill-rule="evenodd" clip-rule="evenodd" d="M336.746 22.9934L336.934 23.0739L336.746 22.75V22.9934ZM336.934 23.2102L336.746 23.2907V23.5341L336.934 23.2102Z" fill="#2ED573"/>
<path d="M320.366 36.3693L343.684 25.5966V20.6875L320.366 9.91477V15.9659L336.746 22.9934V22.75L336.934 23.0739L336.746 22.9934V23.2907L336.934 23.2102L336.746 23.5341V23.2907L320.366 30.3182V36.3693Z" fill="white"/>
<path d="M315.116 0.454544L303.866 42.25H298.462L309.712 0.454544H315.116Z" fill="white"/>
</svg>
